<mxfile host="app.diagrams.net" modified="2024-05-02T22:49:56.219Z" agent="Mozilla/5.0 (Windows NT 10.0; Win64; x64) AppleWebKit/537.36 (KHTML, like Gecko) Chrome/123.0.0.0 Safari/537.36 OPR/109.0.0.0" etag="ooXRHGcUvu9ZEeUlZOfC" version="24.0.2" type="github">
  <diagram name="Page-1" id="kCQ-5cCD135w8WMYoH_2">
    <mxGraphModel dx="996" dy="525" grid="1" gridSize="10" guides="1" tooltips="1" connect="1" arrows="1" fold="1" page="1" pageScale="1" pageWidth="827" pageHeight="1169" math="0" shadow="0">
      <root>
        <mxCell id="0" />
        <mxCell id="1" parent="0" />
        <mxCell id="3ycqGOcJy0l5AKDW314_-19" value="cbi:affectedBy" style="edgeStyle=orthogonalEdgeStyle;rounded=0;orthogonalLoop=1;jettySize=auto;html=1;" edge="1" parent="1" source="3ycqGOcJy0l5AKDW314_-10" target="3ycqGOcJy0l5AKDW314_-14">
          <mxGeometry relative="1" as="geometry" />
        </mxCell>
        <mxCell id="3ycqGOcJy0l5AKDW314_-10" value="cbi:CognitiveProcess" style="rounded=1;arcSize=10;whiteSpace=wrap;html=1;align=center;fillColor=#f0a30a;strokeColor=#BD7000;fontColor=#000000;" vertex="1" parent="1">
          <mxGeometry x="150" y="140" width="150" height="50" as="geometry" />
        </mxCell>
        <mxCell id="3ycqGOcJy0l5AKDW314_-20" value="crm:P69_is_associated_with" style="edgeStyle=orthogonalEdgeStyle;rounded=0;orthogonalLoop=1;jettySize=auto;html=1;" edge="1" parent="1" source="3ycqGOcJy0l5AKDW314_-14" target="3ycqGOcJy0l5AKDW314_-16">
          <mxGeometry relative="1" as="geometry" />
        </mxCell>
        <mxCell id="3ycqGOcJy0l5AKDW314_-21" value="rdfs:hasSubclass" style="edgeStyle=orthogonalEdgeStyle;rounded=0;orthogonalLoop=1;jettySize=auto;html=1;" edge="1" parent="1" source="3ycqGOcJy0l5AKDW314_-14" target="3ycqGOcJy0l5AKDW314_-17">
          <mxGeometry relative="1" as="geometry" />
        </mxCell>
        <mxCell id="3ycqGOcJy0l5AKDW314_-23" value="cbi:hasTrigger" style="edgeStyle=orthogonalEdgeStyle;rounded=0;orthogonalLoop=1;jettySize=auto;html=1;entryX=0.5;entryY=1;entryDx=0;entryDy=0;" edge="1" parent="1" source="3ycqGOcJy0l5AKDW314_-14" target="3ycqGOcJy0l5AKDW314_-18">
          <mxGeometry relative="1" as="geometry" />
        </mxCell>
        <mxCell id="3ycqGOcJy0l5AKDW314_-14" value="cbi:AttentionalBias" style="rounded=1;arcSize=10;whiteSpace=wrap;html=1;align=center;fillColor=#f0a30a;strokeColor=#BD7000;fontColor=#000000;" vertex="1" parent="1">
          <mxGeometry x="440" y="140" width="150" height="50" as="geometry" />
        </mxCell>
        <mxCell id="3ycqGOcJy0l5AKDW314_-22" value="cbi:affects" style="edgeStyle=orthogonalEdgeStyle;rounded=0;orthogonalLoop=1;jettySize=auto;html=1;" edge="1" parent="1" source="3ycqGOcJy0l5AKDW314_-15" target="3ycqGOcJy0l5AKDW314_-14">
          <mxGeometry relative="1" as="geometry">
            <Array as="points">
              <mxPoint x="225" y="220" />
              <mxPoint x="515" y="220" />
            </Array>
          </mxGeometry>
        </mxCell>
        <mxCell id="3ycqGOcJy0l5AKDW314_-15" value="rsctx:EmotionalState" style="rounded=1;arcSize=10;whiteSpace=wrap;html=1;align=center;fillColor=#f0a30a;strokeColor=#BD7000;fontColor=#000000;" vertex="1" parent="1">
          <mxGeometry x="150" y="280" width="150" height="50" as="geometry" />
        </mxCell>
        <mxCell id="3ycqGOcJy0l5AKDW314_-16" value="tb:MentalDisorder" style="rounded=1;arcSize=10;whiteSpace=wrap;html=1;align=center;fillColor=#f0a30a;strokeColor=#BD7000;fontColor=#000000;" vertex="1" parent="1">
          <mxGeometry x="440" y="290" width="150" height="50" as="geometry" />
        </mxCell>
        <mxCell id="3ycqGOcJy0l5AKDW314_-17" value="cbi:CognitiveBias" style="rounded=1;arcSize=10;whiteSpace=wrap;html=1;align=center;fillColor=#f0a30a;strokeColor=#BD7000;fontColor=#000000;" vertex="1" parent="1">
          <mxGeometry x="720" y="140" width="150" height="50" as="geometry" />
        </mxCell>
        <mxCell id="3ycqGOcJy0l5AKDW314_-18" value="emotion:Stimulus" style="rounded=1;arcSize=10;whiteSpace=wrap;html=1;align=center;fillColor=#f0a30a;strokeColor=#BD7000;fontColor=#000000;" vertex="1" parent="1">
          <mxGeometry x="440" width="150" height="50" as="geometry" />
        </mxCell>
      </root>
    </mxGraphModel>
  </diagram>
</mxfile>
